<svg width="103" height="89" viewBox="0 0 103 89" fill="none" xmlns="http://www.w3.org/2000/svg">
    <path d="M1.39514 44.6664C4.72847 29.333 8.06181 29.333 11.3951 44.6664C15.5691 67.733 18.9024 67.733 21.3951 44.6664C24.7285 21.5997 28.0618 21.5997 31.3951 44.6664C37.1948 101.866 40.5281 101.866 41.3951 44.6664C44.7285 -12.5336 48.0618 -12.5336 51.3951 44.6664C54.1962 83.5997 57.5296 83.5997 61.3951 44.6664C64.7285 5.73302 68.0618 5.73302 71.3951 44.6664C75.3849 98.933 78.7182 98.933 81.3951 44.6664C84.7285 -9.60031 88.0618 -9.60031 91.3951 44.6664C94.1879 81.333 97.5213 81.333 101.395 44.6664" stroke="#6D6E71" stroke-width="2"/>
</svg>
