<svg width="45" height="12" viewBox="0 0 45 12" fill="none" xmlns="http://www.w3.org/2000/svg">
    <path d="M5.69531 5.23242H2.11523V9H0.990234V0.46875H6.27539V1.39453H2.11523V4.3125H5.69531V5.23242ZM10.3652 3.63281C10.2012 3.60547 10.0234 3.5918 9.83203 3.5918C9.12109 3.5918 8.63867 3.89453 8.38477 4.5V9H7.30078V2.66016H8.35547L8.37305 3.39258C8.72852 2.82617 9.23242 2.54297 9.88477 2.54297C10.0957 2.54297 10.2559 2.57031 10.3652 2.625V3.63281ZM15.0469 9C14.9844 8.875 14.9336 8.65234 14.8945 8.33203C14.3906 8.85547 13.7891 9.11719 13.0898 9.11719C12.4648 9.11719 11.9512 8.94141 11.5488 8.58984C11.1504 8.23438 10.9512 7.78516 10.9512 7.24219C10.9512 6.58203 11.2012 6.07031 11.7012 5.70703C12.2051 5.33984 12.9121 5.15625 13.8223 5.15625H14.877V4.6582C14.877 4.2793 14.7637 3.97852 14.5371 3.75586C14.3105 3.5293 13.9766 3.41602 13.5352 3.41602C13.1484 3.41602 12.8242 3.51367 12.5625 3.70898C12.3008 3.9043 12.1699 4.14062 12.1699 4.41797H11.0801C11.0801 4.10156 11.1914 3.79688 11.4141 3.50391C11.6406 3.20703 11.9453 2.97266 12.3281 2.80078C12.7148 2.62891 13.1387 2.54297 13.5996 2.54297C14.3301 2.54297 14.9023 2.72656 15.3164 3.09375C15.7305 3.45703 15.9453 3.95898 15.9609 4.59961V7.51758C15.9609 8.09961 16.0352 8.5625 16.1836 8.90625V9H15.0469ZM13.248 8.17383C13.5879 8.17383 13.9102 8.08594 14.2148 7.91016C14.5195 7.73438 14.7402 7.50586 14.877 7.22461V5.92383H14.0273C12.6992 5.92383 12.0352 6.3125 12.0352 7.08984C12.0352 7.42969 12.1484 7.69531 12.375 7.88672C12.6016 8.07812 12.8926 8.17383 13.248 8.17383ZM18.6855 2.66016L18.7207 3.45703C19.2051 2.84766 19.8379 2.54297 20.6191 2.54297C21.959 2.54297 22.6348 3.29883 22.6465 4.81055V9H21.5625V4.80469C21.5586 4.34766 21.4531 4.00977 21.2461 3.79102C21.043 3.57227 20.7246 3.46289 20.291 3.46289C19.9395 3.46289 19.6309 3.55664 19.3652 3.74414C19.0996 3.93164 18.8926 4.17773 18.7441 4.48242V9H17.6602V2.66016H18.6855ZM26.8242 8.23242C27.2109 8.23242 27.5488 8.11523 27.8379 7.88086C28.127 7.64648 28.2871 7.35352 28.3184 7.00195H29.3438C29.3242 7.36523 29.1992 7.71094 28.9688 8.03906C28.7383 8.36719 28.4297 8.62891 28.043 8.82422C27.6602 9.01953 27.2539 9.11719 26.8242 9.11719C25.9609 9.11719 25.2734 8.83008 24.7617 8.25586C24.2539 7.67773 24 6.88867 24 5.88867V5.70703C24 5.08984 24.1133 4.54102 24.3398 4.06055C24.5664 3.58008 24.8906 3.20703 25.3125 2.94141C25.7383 2.67578 26.2402 2.54297 26.8184 2.54297C27.5293 2.54297 28.1191 2.75586 28.5879 3.18164C29.0605 3.60742 29.3125 4.16016 29.3438 4.83984H28.3184C28.2871 4.42969 28.1309 4.09375 27.8496 3.83203C27.5723 3.56641 27.2285 3.43359 26.8184 3.43359C26.2676 3.43359 25.8398 3.63281 25.5352 4.03125C25.2344 4.42578 25.084 4.99805 25.084 5.74805V5.95312C25.084 6.68359 25.2344 7.24609 25.5352 7.64062C25.8359 8.03516 26.2656 8.23242 26.8242 8.23242ZM27 9.05273L26.9297 9.35742C27.5273 9.46289 27.8262 9.80078 27.8262 10.3711C27.8262 10.75 27.6699 11.0488 27.3574 11.2676C27.0449 11.4902 26.6094 11.6016 26.0508 11.6016L26.0098 10.9746C26.3184 10.9746 26.5566 10.9238 26.7246 10.8223C26.8965 10.7207 26.9824 10.5781 26.9824 10.3945C26.9824 10.2227 26.9199 10.0957 26.7949 10.0137C26.6699 9.93164 26.416 9.87305 26.0332 9.83789L26.2207 9.05273H27ZM34.4766 9C34.4141 8.875 34.3633 8.65234 34.3242 8.33203C33.8203 8.85547 33.2188 9.11719 32.5195 9.11719C31.8945 9.11719 31.3809 8.94141 30.9785 8.58984C30.5801 8.23438 30.3809 7.78516 30.3809 7.24219C30.3809 6.58203 30.6309 6.07031 31.1309 5.70703C31.6348 5.33984 32.3418 5.15625 33.252 5.15625H34.3066V4.6582C34.3066 4.2793 34.1934 3.97852 33.9668 3.75586C33.7402 3.5293 33.4062 3.41602 32.9648 3.41602C32.5781 3.41602 32.2539 3.51367 31.9922 3.70898C31.7305 3.9043 31.5996 4.14062 31.5996 4.41797H30.5098C30.5098 4.10156 30.6211 3.79688 30.8438 3.50391C31.0703 3.20703 31.375 2.97266 31.7578 2.80078C32.1445 2.62891 32.5684 2.54297 33.0293 2.54297C33.7598 2.54297 34.332 2.72656 34.7461 3.09375C35.1602 3.45703 35.375 3.95898 35.3906 4.59961V7.51758C35.3906 8.09961 35.4648 8.5625 35.6133 8.90625V9H34.4766ZM32.6777 8.17383C33.0176 8.17383 33.3398 8.08594 33.6445 7.91016C33.9492 7.73438 34.1699 7.50586 34.3066 7.22461V5.92383H33.457C32.1289 5.92383 31.4648 6.3125 31.4648 7.08984C31.4648 7.42969 31.5781 7.69531 31.8047 7.88672C32.0312 8.07812 32.3223 8.17383 32.6777 8.17383ZM38.2676 9H37.1836V2.66016H38.2676V9ZM37.0957 0.978516C37.0957 0.802734 37.1484 0.654297 37.2539 0.533203C37.3633 0.412109 37.5234 0.351562 37.7344 0.351562C37.9453 0.351562 38.1055 0.412109 38.2148 0.533203C38.3242 0.654297 38.3789 0.802734 38.3789 0.978516C38.3789 1.1543 38.3242 1.30078 38.2148 1.41797C38.1055 1.53516 37.9453 1.59375 37.7344 1.59375C37.5234 1.59375 37.3633 1.53516 37.2539 1.41797C37.1484 1.30078 37.0957 1.1543 37.0957 0.978516ZM43.6992 7.31836C43.6992 7.02539 43.5879 6.79883 43.3652 6.63867C43.1465 6.47461 42.7617 6.33398 42.2109 6.2168C41.6641 6.09961 41.2285 5.95898 40.9043 5.79492C40.584 5.63086 40.3457 5.43555 40.1895 5.20898C40.0371 4.98242 39.9609 4.71289 39.9609 4.40039C39.9609 3.88086 40.1797 3.44141 40.6172 3.08203C41.0586 2.72266 41.6211 2.54297 42.3047 2.54297C43.0234 2.54297 43.6055 2.72852 44.0508 3.09961C44.5 3.4707 44.7246 3.94531 44.7246 4.52344H43.6348C43.6348 4.22656 43.5078 3.9707 43.2539 3.75586C43.0039 3.54102 42.6875 3.43359 42.3047 3.43359C41.9102 3.43359 41.6016 3.51953 41.3789 3.69141C41.1562 3.86328 41.0449 4.08789 41.0449 4.36523C41.0449 4.62695 41.1484 4.82422 41.3555 4.95703C41.5625 5.08984 41.9355 5.2168 42.4746 5.33789C43.0176 5.45898 43.457 5.60352 43.793 5.77148C44.1289 5.93945 44.377 6.14258 44.5371 6.38086C44.7012 6.61523 44.7832 6.90234 44.7832 7.24219C44.7832 7.80859 44.5566 8.26367 44.1035 8.60742C43.6504 8.94727 43.0625 9.11719 42.3398 9.11719C41.832 9.11719 41.3828 9.02734 40.9922 8.84766C40.6016 8.66797 40.2949 8.41797 40.0723 8.09766C39.8535 7.77344 39.7441 7.42383 39.7441 7.04883H40.8281C40.8477 7.41211 40.9922 7.70117 41.2617 7.91602C41.5352 8.12695 41.8945 8.23242 42.3398 8.23242C42.75 8.23242 43.0781 8.15039 43.3242 7.98633C43.5742 7.81836 43.6992 7.5957 43.6992 7.31836Z" fill="#808080"/>
</svg>
