<svg width="122" height="36" viewBox="0 0 122 36" fill="none" xmlns="http://www.w3.org/2000/svg">
    <path d="M15.704 4.52V35H11.336V4.52H0.00800008V0.631999H26.936V4.52H15.704ZM40.7413 9.8C44.4533 9.8 47.2853 11.096 49.2373 13.688C50.9653 15.928 51.8293 18.968 51.8293 22.808C51.8293 27.096 50.7093 30.36 48.4693 32.6C46.5493 34.552 43.9573 35.528 40.6933 35.528C36.9173 35.528 34.0373 34.264 32.0533 31.736C30.3253 29.528 29.4613 26.552 29.4613 22.808C29.4613 18.456 30.5973 15.112 32.8693 12.776C34.8213 10.792 37.4453 9.8 40.7413 9.8ZM40.7413 13.4C38.5013 13.4 36.7413 14.248 35.4613 15.944C34.1813 17.608 33.5413 19.896 33.5413 22.808C33.5413 25.848 34.2613 28.168 35.7013 29.768C36.9493 31.176 38.6133 31.88 40.6933 31.88C42.9013 31.88 44.6133 31.08 45.8293 29.48C47.0773 27.88 47.7013 25.656 47.7013 22.808C47.7013 19.672 46.9973 17.272 45.5893 15.608C44.3733 14.136 42.7573 13.4 40.7413 13.4ZM66.9444 9.8C70.6564 9.8 73.4884 11.096 75.4404 13.688C77.1684 15.928 78.0324 18.968 78.0324 22.808C78.0324 27.096 76.9124 30.36 74.6724 32.6C72.7524 34.552 70.1604 35.528 66.8964 35.528C63.1204 35.528 60.2404 34.264 58.2564 31.736C56.5284 29.528 55.6644 26.552 55.6644 22.808C55.6644 18.456 56.8004 15.112 59.0724 12.776C61.0244 10.792 63.6484 9.8 66.9444 9.8ZM66.9444 13.4C64.7044 13.4 62.9444 14.248 61.6644 15.944C60.3844 17.608 59.7444 19.896 59.7444 22.808C59.7444 25.848 60.4644 28.168 61.9044 29.768C63.1524 31.176 64.8164 31.88 66.8964 31.88C69.1044 31.88 70.8164 31.08 72.0324 29.48C73.2804 27.88 73.9044 25.656 73.9044 22.808C73.9044 19.672 73.2004 17.272 71.7924 15.608C70.5764 14.136 68.9604 13.4 66.9444 13.4ZM87.3395 0.631999V35H83.4035V0.631999H87.3395ZM111.473 17.096H107.153C107.025 14.632 105.377 13.4 102.209 13.4C100.577 13.4 99.2806 13.72 98.3206 14.36C97.3926 14.968 96.9286 15.8 96.9286 16.856C96.9286 18.456 98.4486 19.608 101.489 20.312L105.281 21.176C107.745 21.752 109.521 22.568 110.609 23.624C111.697 24.68 112.241 26.12 112.241 27.944C112.241 30.28 111.329 32.136 109.505 33.512C107.681 34.856 105.217 35.528 102.113 35.528C98.7206 35.528 96.1446 34.728 94.3846 33.128C92.9126 31.816 92.1286 30.072 92.0326 27.896H96.4966C96.7526 29.016 97.1046 29.832 97.5526 30.344C98.4166 31.368 100.033 31.88 102.401 31.88C104.161 31.88 105.553 31.56 106.577 30.92C107.633 30.248 108.161 29.368 108.161 28.28C108.161 26.648 106.897 25.528 104.369 24.92L100.673 24.056C97.8566 23.384 95.8886 22.584 94.7686 21.656C93.4886 20.6 92.8486 19.08 92.8486 17.096C92.8486 14.856 93.6966 13.08 95.3926 11.768C97.1206 10.456 99.4246 9.8 102.305 9.8C105.313 9.8 107.649 10.552 109.313 12.056C110.753 13.368 111.473 15.048 111.473 17.096ZM119.019 21.56C119.691 21.56 120.251 21.784 120.699 22.232C121.147 22.68 121.371 23.24 121.371 23.912C121.371 24.552 121.147 25.112 120.699 25.592C120.251 26.04 119.691 26.264 119.019 26.264C118.379 26.264 117.819 26.04 117.339 25.592C116.891 25.112 116.667 24.552 116.667 23.912C116.667 23.24 116.891 22.68 117.339 22.232C117.819 21.784 118.379 21.56 119.019 21.56ZM119.067 30.536C119.707 30.536 120.251 30.76 120.699 31.208C121.179 31.656 121.419 32.216 121.419 32.888C121.419 33.528 121.179 34.088 120.699 34.568C120.251 35.016 119.707 35.24 119.067 35.24C118.395 35.24 117.819 35.016 117.339 34.568C116.891 34.088 116.667 33.528 116.667 32.888C116.667 32.216 116.891 31.656 117.339 31.208C117.819 30.76 118.395 30.536 119.067 30.536Z" fill="grey"/>
</svg>
